<?xml version="1.0" encoding="utf-8"?>
<!-- Generator: Adobe Illustrator 21.0.0, SVG Export Plug-In . SVG Version: 6.00 Build 0)  -->
<svg version="1.1" id="图层_1" xmlns="http://www.w3.org/2000/svg" xmlns:xlink="http://www.w3.org/1999/xlink" x="0px" y="0px"
	 viewBox="0 0 217.2 45.6" style="enable-background:new 0 0 217.2 45.6;" xml:space="preserve">
<style type="text/css">
	.st0{fill:#1D4A9E;}
</style>
<g>
	<path class="st0" d="M31.9,8c0,0.4-0.1,0.9-0.2,1.5c-0.1,0.6-0.3,1.1-0.5,1.4c-0.2,0.4-0.5,0.5-0.7,0.5c-0.3,0-0.6-0.2-1-0.5
		c-0.4-0.4-0.9-0.8-1.5-1.2c-0.6-0.4-1.4-0.8-2.4-1.2c-1-0.4-2.2-0.5-3.7-0.5c-1.6,0-3.1,0.3-4.5,0.9s-2.6,1.4-3.6,2.5
		c-1.1,1-2,2.3-2.9,3.6c-0.8,1.4-1.5,2.8-2,4.3c-0.5,1.5-0.9,3-1.2,4.5c-0.3,1.5-0.4,3-0.4,4.3c0,1.6,0.2,3,0.6,4.2
		c0.4,1.2,1,2.3,1.7,3.1c0.7,0.8,1.7,1.5,2.7,1.9c1.1,0.4,2.3,0.6,3.7,0.6c1.5,0,2.8-0.2,3.9-0.5c1.1-0.3,2.1-0.7,2.8-1.1
		c0.8-0.4,1.5-0.8,2-1.1c0.5-0.3,1-0.5,1.3-0.5c0.2,0,0.4,0.1,0.5,0.2c0.1,0.2,0.1,0.4,0.1,0.7c0,0.1,0,0.2,0,0.4
		c0,0.2-0.1,0.4-0.1,0.6c0,0.2-0.1,0.4-0.1,0.7c0,0.3-0.1,0.5-0.2,0.7c-0.1,0.2-0.2,0.4-0.2,0.6c-0.1,0.2-0.2,0.4-0.4,0.6
		c-0.2,0.2-0.6,0.5-1.3,0.9c-0.7,0.4-1.5,0.7-2.4,1.1c-0.9,0.3-2,0.6-3.2,0.9c-1.2,0.2-2.4,0.4-3.8,0.4c-2,0-3.8-0.3-5.4-0.9
		c-1.6-0.6-3-1.5-4.1-2.6c-1.1-1.2-2-2.6-2.6-4.3s-0.9-3.7-0.9-6c0-1.9,0.2-3.8,0.6-5.7c0.4-2,1-3.9,1.7-5.7
		c0.8-1.9,1.7-3.6,2.9-5.2s2.5-3.1,4-4.3c1.5-1.2,3.2-2.2,5.1-2.9c1.9-0.7,4-1.1,6.2-1.1c1.4,0,2.8,0.2,4,0.5
		c1.2,0.3,2.3,0.7,3.2,1.2c0.9,0.5,1.5,0.9,1.9,1.3C31.7,7.1,31.9,7.5,31.9,8z"/>
	<path class="st0" d="M58.3,23.7c0,1.4-0.1,2.9-0.4,4.4c-0.3,1.5-0.7,3-1.2,4.4c-0.6,1.4-1.3,2.7-2.1,3.9c-0.9,1.2-1.9,2.3-3,3.2
		c-1.2,0.9-2.5,1.6-4,2.2c-1.5,0.5-3.1,0.8-4.9,0.8c-1.9,0-3.5-0.2-4.8-0.7c-1.3-0.4-2.4-1.1-3.3-2c-0.9-0.9-1.5-1.9-1.9-3.2
		c-0.4-1.2-0.6-2.7-0.6-4.2c0-1.4,0.1-2.9,0.4-4.4c0.3-1.5,0.7-2.9,1.2-4.3c0.6-1.4,1.3-2.7,2.1-3.9c0.8-1.2,1.9-2.3,3-3.2
		c1.2-0.9,2.5-1.6,4-2.2c1.5-0.5,3.1-0.8,4.9-0.8c1.9,0,3.5,0.2,4.8,0.7c1.3,0.5,2.4,1.1,3.3,2c0.9,0.9,1.5,1.9,1.9,3.2
		C58.1,20.7,58.3,22.1,58.3,23.7z M53.2,24c0-1-0.1-1.9-0.3-2.6c-0.2-0.8-0.5-1.4-1-2c-0.5-0.5-1.1-1-1.9-1.2
		c-0.8-0.3-1.7-0.4-2.8-0.4c-1.2,0-2.2,0.2-3.2,0.6c-1,0.4-1.8,1-2.6,1.7c-0.8,0.7-1.4,1.5-2,2.5c-0.6,1-1,2-1.4,3.1
		c-0.4,1.1-0.6,2.2-0.8,3.3s-0.3,2.3-0.3,3.4c0,1,0.1,1.9,0.3,2.6c0.2,0.8,0.6,1.4,1,2c0.5,0.5,1.1,1,1.9,1.3s1.7,0.4,2.8,0.4
		c1.2,0,2.3-0.2,3.2-0.6c0.9-0.4,1.8-1,2.5-1.7c0.8-0.7,1.4-1.6,2-2.5c0.6-1,1-2,1.4-3.1c0.4-1.1,0.6-2.2,0.8-3.3
		C53.2,26.2,53.2,25.1,53.2,24z"/>
	<path class="st0" d="M101,41.3c0,0.2-0.1,0.3-0.2,0.4c-0.1,0.1-0.2,0.2-0.5,0.3s-0.5,0.1-0.8,0.2c-0.3,0-0.7,0.1-1.2,0.1
		s-0.9,0-1.2-0.1c-0.3,0-0.5-0.1-0.7-0.2c-0.2-0.1-0.3-0.2-0.3-0.3c-0.1-0.1-0.1-0.2,0-0.4L99.4,25c0.1-0.6,0.2-1.1,0.2-1.6
		c0.1-0.5,0.1-1,0.1-1.5c0-1.2-0.2-2.2-0.7-3c-0.5-0.7-1.3-1.1-2.5-1.1c-1,0-2,0.3-3,0.9c-1,0.6-2,1.4-3,2.5c-0.9,1-1.8,2.3-2.5,3.7
		c-0.7,1.4-1.2,3-1.6,4.7l-2.3,11.8c0,0.2-0.1,0.3-0.2,0.4c-0.1,0.1-0.2,0.2-0.5,0.3s-0.5,0.1-0.8,0.2c-0.3,0-0.7,0.1-1.2,0.1
		s-0.9,0-1.2-0.1c-0.3,0-0.5-0.1-0.7-0.2c-0.2-0.1-0.3-0.2-0.3-0.3c-0.1-0.1-0.1-0.2-0.1-0.4L82.5,25c0.1-0.6,0.2-1.2,0.3-1.7
		c0-0.6,0.1-1.1,0.1-1.6c0-1.2-0.2-2.1-0.7-2.9c-0.5-0.7-1.3-1.1-2.5-1.1c-1,0-2,0.3-3,0.9c-1,0.6-2,1.4-3,2.5
		c-0.9,1-1.8,2.3-2.5,3.7c-0.7,1.4-1.2,3-1.6,4.7l-2.3,11.8c0,0.2-0.1,0.3-0.2,0.4c-0.1,0.1-0.2,0.2-0.4,0.3
		c-0.2,0.1-0.5,0.1-0.8,0.2c-0.3,0-0.7,0.1-1.2,0.1c-0.5,0-0.9,0-1.2-0.1c-0.3,0-0.5-0.1-0.7-0.2c-0.2-0.1-0.3-0.2-0.3-0.3
		c0-0.1-0.1-0.2,0-0.4l5.3-26.4c0-0.1,0.1-0.3,0.2-0.4s0.2-0.2,0.4-0.3c0.2-0.1,0.4-0.1,0.7-0.2c0.3,0,0.6,0,1,0c0.4,0,0.7,0,1,0
		s0.5,0.1,0.6,0.2c0.1,0.1,0.2,0.2,0.3,0.3c0,0.1,0,0.2,0,0.4l-1,5c0.3-0.7,0.8-1.4,1.5-2.1c0.7-0.7,1.5-1.4,2.4-2.1
		c0.9-0.6,1.9-1.1,2.9-1.6c1.1-0.4,2.2-0.6,3.3-0.6c1.2,0,2.2,0.2,3,0.5c0.8,0.3,1.5,0.8,2.1,1.3c0.5,0.6,0.9,1.2,1.2,2
		c0.3,0.8,0.4,1.6,0.5,2.5c0.4-0.7,0.9-1.4,1.6-2.1c0.7-0.7,1.5-1.4,2.4-2c0.9-0.6,1.9-1.1,2.9-1.5s2.1-0.6,3.2-0.6
		c1.3,0,2.4,0.2,3.3,0.6c0.9,0.4,1.6,0.9,2.1,1.5c0.5,0.6,0.9,1.4,1.2,2.3c0.2,0.9,0.4,1.8,0.4,2.8c0,0.7,0,1.4-0.1,2
		c-0.1,0.7-0.2,1.3-0.3,2.1L101,41.3z"/>
	<path class="st0" d="M114.7,41.3c0,0.2-0.1,0.3-0.2,0.4c-0.1,0.1-0.2,0.2-0.4,0.3c-0.2,0.1-0.5,0.1-0.8,0.2c-0.3,0-0.7,0.1-1.2,0.1
		c-0.5,0-0.9,0-1.2-0.1c-0.3,0-0.5-0.1-0.7-0.2c-0.2-0.1-0.3-0.2-0.3-0.3c0-0.1-0.1-0.2,0-0.4l7.8-39.1c0-0.2,0.1-0.3,0.2-0.4
		s0.2-0.2,0.4-0.3c0.2-0.1,0.5-0.1,0.8-0.2c0.3,0,0.7-0.1,1.2-0.1c0.5,0,0.9,0,1.2,0.1c0.3,0,0.5,0.1,0.7,0.2
		c0.2,0.1,0.3,0.2,0.3,0.3c0,0.1,0,0.3,0,0.4L114.7,41.3z"/>
	<path class="st0" d="M128.5,41.3c0,0.2-0.1,0.3-0.2,0.4c-0.1,0.1-0.2,0.2-0.4,0.3c-0.2,0.1-0.5,0.1-0.8,0.2c-0.3,0-0.7,0.1-1.2,0.1
		c-0.5,0-0.9,0-1.2-0.1c-0.3,0-0.5-0.1-0.7-0.2c-0.2-0.1-0.3-0.2-0.3-0.3c0-0.1-0.1-0.2,0-0.4l5.2-26.4c0-0.1,0.1-0.3,0.2-0.4
		c0.1-0.1,0.2-0.2,0.4-0.3c0.2-0.1,0.5-0.1,0.8-0.2c0.3,0,0.7-0.1,1.2-0.1c0.5,0,0.9,0,1.2,0.1c0.3,0,0.5,0.1,0.7,0.2
		c0.2,0.1,0.3,0.2,0.3,0.3c0,0.1,0.1,0.2,0,0.4L128.5,41.3z M136.1,6.1c-0.1,0.5-0.2,1-0.4,1.4c-0.2,0.4-0.4,0.7-0.7,0.9
		c-0.3,0.2-0.6,0.4-1,0.5c-0.4,0.1-0.9,0.1-1.5,0.1c-0.6,0-1,0-1.4-0.1c-0.4-0.1-0.6-0.3-0.8-0.5c-0.2-0.2-0.3-0.5-0.3-0.9
		c0-0.4,0-0.8,0.1-1.4c0.1-0.5,0.3-1,0.4-1.4c0.2-0.4,0.4-0.7,0.7-0.9c0.3-0.2,0.6-0.4,1-0.5s0.9-0.1,1.5-0.1c0.6,0,1,0,1.4,0.1
		c0.4,0.1,0.6,0.3,0.8,0.5c0.2,0.2,0.3,0.5,0.3,0.9C136.2,5.1,136.2,5.5,136.1,6.1z"/>
	<path class="st0" d="M164.1,23.2c0,1.2-0.1,2.5-0.3,3.9c-0.2,1.4-0.6,2.8-1,4.3c-0.5,1.4-1.1,2.8-1.8,4.2c-0.7,1.4-1.6,2.6-2.7,3.6
		c-1,1-2.2,1.9-3.6,2.5c-1.4,0.6-2.9,1-4.6,1c-1.8,0-3.3-0.3-4.5-1c-1.2-0.7-2.4-1.6-3.3-2.9l-0.5,2.6c0,0.3-0.2,0.6-0.6,0.7
		s-1,0.2-1.7,0.2c-0.8,0-1.4-0.1-1.6-0.2c-0.3-0.2-0.4-0.4-0.3-0.7l7.8-39.1c0-0.2,0.1-0.3,0.2-0.4s0.2-0.2,0.4-0.3
		c0.2-0.1,0.5-0.1,0.8-0.2c0.3,0,0.7-0.1,1.2-0.1c0.5,0,0.8,0,1.1,0.1c0.3,0,0.5,0.1,0.7,0.2c0.2,0.1,0.3,0.2,0.3,0.3
		c0,0.1,0,0.3,0,0.4L147.7,14c-0.1,0.5-0.2,1-0.4,1.6c-0.1,0.5-0.3,1.1-0.4,1.6c-0.1,0.5-0.3,1-0.4,1.5c-0.1,0.5-0.3,0.9-0.4,1.2
		c0.3-0.7,0.8-1.4,1.5-2.1s1.5-1.4,2.4-2c0.9-0.6,1.9-1.1,3-1.5c1.1-0.4,2.2-0.6,3.3-0.6c1.2,0,2.2,0.2,3,0.5
		c0.8,0.3,1.6,0.7,2.1,1.2c0.6,0.5,1.1,1.1,1.4,1.8c0.4,0.7,0.6,1.3,0.8,2.1c0.2,0.7,0.3,1.4,0.4,2.1
		C164.1,22,164.1,22.6,164.1,23.2z M159,23.6c0-0.5,0-1.1-0.1-1.8c-0.1-0.7-0.3-1.3-0.6-1.9c-0.3-0.6-0.7-1.1-1.2-1.5
		c-0.5-0.4-1.3-0.6-2.2-0.6c-1.1,0-2.1,0.3-3.2,0.9c-1.1,0.6-2.1,1.4-3,2.5c-0.9,1.1-1.8,2.3-2.5,3.8s-1.3,3-1.6,4.7l-1,4.9
		c0.9,1.3,1.9,2.3,3,3s2.2,1,3.6,1c1,0,1.9-0.2,2.8-0.7s1.6-1.1,2.2-1.9c0.7-0.8,1.2-1.7,1.7-2.7c0.5-1,0.9-2.1,1.2-3.2
		c0.3-1.1,0.6-2.2,0.7-3.3C159,25.6,159,24.6,159,23.6z"/>
	<path class="st0" d="M188.5,15c0,0.1,0,0.2,0,0.5c0,0.2-0.1,0.5-0.1,0.8c0,0.3-0.1,0.6-0.2,0.9c-0.1,0.3-0.2,0.6-0.3,0.9
		s-0.2,0.5-0.4,0.7s-0.3,0.3-0.4,0.3s-0.3,0-0.5-0.1c-0.2-0.1-0.4-0.2-0.6-0.2c-0.2-0.1-0.5-0.2-0.8-0.2c-0.3-0.1-0.6-0.1-1-0.1
		c-0.7,0-1.4,0.3-2.3,0.9c-0.9,0.6-1.7,1.4-2.6,2.4c-0.8,1-1.6,2.2-2.3,3.6c-0.7,1.4-1.2,2.9-1.5,4.5l-2.3,11.7
		c0,0.2-0.1,0.3-0.2,0.4c-0.1,0.1-0.2,0.2-0.4,0.3c-0.2,0.1-0.5,0.1-0.8,0.2c-0.3,0-0.7,0.1-1.2,0.1c-0.5,0-0.9,0-1.2-0.1
		c-0.3,0-0.5-0.1-0.7-0.2c-0.2-0.1-0.3-0.2-0.3-0.3c0-0.1-0.1-0.2,0-0.4l5.2-26.4c0-0.1,0.1-0.3,0.2-0.4c0.1-0.1,0.2-0.2,0.4-0.3
		c0.2-0.1,0.4-0.1,0.7-0.2c0.3,0,0.6,0,1,0c0.4,0,0.7,0,1,0s0.5,0.1,0.6,0.2c0.1,0.1,0.2,0.2,0.3,0.3c0,0.1,0,0.2,0,0.4l-1,4.8
		c0.4-0.8,1-1.6,1.6-2.3c0.6-0.7,1.3-1.4,2-1.9c0.7-0.6,1.5-1,2.3-1.3c0.8-0.3,1.6-0.5,2.3-0.5c0.3,0,0.7,0,1,0.1
		c0.3,0,0.7,0.1,1,0.2c0.3,0.1,0.6,0.1,0.8,0.2s0.4,0.2,0.5,0.3S188.5,14.7,188.5,15z"/>
	<path class="st0" d="M210.7,41.3c-0.1,0.3-0.3,0.6-0.6,0.7s-0.9,0.2-1.8,0.2c-0.4,0-0.7,0-1-0.1c-0.3,0-0.5-0.1-0.6-0.2
		s-0.3-0.2-0.3-0.3c-0.1-0.1-0.1-0.2,0-0.4l1-5c-0.3,0.6-0.7,1.3-1.4,2.1c-0.7,0.7-1.5,1.4-2.4,2.1c-0.9,0.6-1.9,1.1-3,1.6
		s-2.2,0.6-3.4,0.6c-1.6,0-2.9-0.3-3.9-0.8s-1.8-1.3-2.4-2.2c-0.6-0.9-1-1.9-1.2-3c-0.2-1.1-0.3-2.3-0.3-3.5c0-1.1,0.1-2.3,0.3-3.7
		c0.2-1.4,0.5-2.8,1-4.2c0.5-1.4,1.1-2.9,1.8-4.2c0.7-1.4,1.6-2.6,2.7-3.7s2.2-2,3.6-2.6c1.4-0.7,2.9-1,4.7-1s3.2,0.4,4.5,1.1
		s2.3,1.7,3.3,2.9l0.6-2.7c0.1-0.3,0.3-0.5,0.7-0.7c0.4-0.1,0.9-0.2,1.7-0.2c0.4,0,0.7,0,1,0s0.5,0.1,0.6,0.2
		c0.2,0.1,0.3,0.2,0.3,0.3s0,0.2,0,0.4L210.7,41.3z M209.8,21.8c-0.9-1.3-1.9-2.4-3-3s-2.3-1-3.6-1c-1.1,0-2,0.2-2.9,0.7
		s-1.6,1.2-2.3,2s-1.2,1.8-1.7,2.8c-0.5,1-0.9,2.1-1.2,3.2s-0.5,2.2-0.7,3.3c-0.1,1.1-0.2,2-0.2,2.9c0,0.7,0.1,1.4,0.2,2
		s0.3,1.3,0.6,1.8s0.7,1,1.2,1.3c0.5,0.3,1.2,0.5,2.1,0.5c1.1,0,2.2-0.3,3.2-0.9c1.1-0.6,2.1-1.4,3-2.5s1.8-2.3,2.5-3.7
		c0.7-1.4,1.3-3,1.6-4.7L209.8,21.8z"/>
</g>
</svg>
